<?xml version="1.0" encoding="UTF-8"?><svg id="a" xmlns="http://www.w3.org/2000/svg" viewBox="0 0 150 30"><rect width="150" height="30" style="fill:#0d1117;"/><path d="m83.58,23.41h-3.42v-5.36c0-1.28-.03-2.92-1.78-2.92s-2.06,1.39-2.06,2.83v5.45h-3.42v-11.02h3.29v1.5h.04c.46-.87,1.58-1.78,3.24-1.78,3.47,0,4.11,2.28,4.11,5.25v6.05h0Zm-14.54-12.53c-1.1,0-1.99-.89-1.99-1.99s.89-1.99,1.99-1.99,1.99.89,1.99,1.99-.89,1.99-1.99,1.99Zm1.72,12.53h-3.43v-11.02h3.43v11.02Zm14.54-19.69h-19.69c-.94,0-1.7.74-1.7,1.66v19.77c0,.92.76,1.66,1.7,1.66h19.68c.94,0,1.71-.74,1.71-1.66V5.39c0-.92-.77-1.66-1.71-1.66h0Z" style="fill:#fff;"/></svg>