<?xml version="1.0" encoding="UTF-8"?><svg id="a" xmlns="http://www.w3.org/2000/svg" viewBox="0 0 150 30"><rect width="150" height="30" style="fill:#0d1117;"/><path d="m77.44,15c.02,5.94-4.78,10.77-10.72,10.8-5.94-.03-10.74-4.86-10.72-10.8-.02-5.94,4.78-10.77,10.72-10.8,5.94.03,10.74,4.86,10.72,10.8Zm11.75,0c0,5.6-2.39,10.16-5.35,10.16s-5.37-4.56-5.37-10.16,2.41-10.16,5.37-10.16,5.35,4.56,5.35,10.16m4.81,0c0,5.02-.84,9.1-1.88,9.1s-1.88-4.08-1.88-9.1.84-9.1,1.88-9.1,1.88,4.08,1.88,9.1Z" style="fill:#fff;"/></svg>